<svg xmlns="http://www.w3.org/2000/svg" viewBox="0 0 472.81 599.91"><defs><style>.cls-1{fill:#ddd;}.cls-2{fill:#1b1439;}.cls-3{fill:#110c29;}.cls-4{fill:#080618;}.cls-5{fill:#e5714c;}.cls-6{fill:#fff;}.cls-7{fill:#ffc600;}.cls-8{fill:#ff8c61;}.cls-9{fill:#302a56;}.cls-10{fill:#433b73;}.cls-11{fill:#261f4e;}.cls-12{fill:#f0f1ea;}.cls-13{fill:#7b4f5c;}.cls-14{fill:#edad00;}.cls-15{fill:#ffc800;}.cls-16{fill:#e95369;}.cls-17{fill:#cb475a;}.cls-18{fill:#af3d4d;}.cls-19{fill:#a43848;}.cls-20,.cls-21{fill:none;stroke-linecap:round;stroke-miterlimit:10;}.cls-20{stroke:#261f4e;stroke-width:1.5px;}.cls-21{stroke:#1b1439;stroke-width:3px;}.cls-22{fill:#211943;}.cls-23{fill:#c76140;}.cls-24{fill:#ff444e;}</style></defs><title>Asset 1guys_item</title><g id="Layer_2" data-name="Layer 2"><g id="Layer_1-2" data-name="Layer 1"><ellipse class="cls-1" cx="329.87" cy="545.02" rx="142.94" ry="19.52"/><path class="cls-2" d="M283.25,532a4.92,4.92,0,0,1-4.92,4.92h0a4.92,4.92,0,0,1-4.92-4.92V519.56a4.92,4.92,0,0,1,4.92-4.92h0a4.92,4.92,0,0,1,4.92,4.92Z"/><path class="cls-3" d="M278.33,529.81a4.92,4.92,0,0,1-4.92-4.93V532a4.92,4.92,0,0,0,9.84,0v-7.13A4.92,4.92,0,0,1,278.33,529.81Z"/><path class="cls-2" d="M245.63,532a4.92,4.92,0,0,1-4.92,4.92h0a4.93,4.93,0,0,1-4.93-4.92V519.56a4.93,4.93,0,0,1,4.93-4.92h0a4.92,4.92,0,0,1,4.92,4.92Z"/><path class="cls-3" d="M240.71,529.81a4.93,4.93,0,0,1-4.93-4.93V532a4.93,4.93,0,0,0,9.85,0v-7.13A4.93,4.93,0,0,1,240.71,529.81Z"/><rect class="cls-4" x="224.98" y="514.64" width="70.45" height="9.54"/><path class="cls-2" d="M296.21,402.86a10.25,10.25,0,0,1,10.4,11.66l-8.85,77a13.51,13.51,0,0,1-13.07,11.66H234.77a13.23,13.23,0,0,1-12.87-11.68l-7.5-76.91A10.46,10.46,0,0,1,225,402.86Z"/><rect class="cls-2" x="214.4" y="411.89" width="92.19" height="20.19"/><path class="cls-3" d="M296.21,421.53a10.25,10.25,0,0,1,10.4,11.66l-8.85,77a13.52,13.52,0,0,1-13.07,11.66H234.77a13.24,13.24,0,0,1-12.87-11.68l-7.5-76.92A10.46,10.46,0,0,1,225,421.53Z"/><path class="cls-5" d="M265.08,327.91c2.2-6.11,2-18.84,2-18.84l-21.19,13c.08,17.35,5.29,20.53,5.29,20.53,8.07,2.69,17.85,0,17.85,0C269.24,336.23,265.08,327.91,265.08,327.91Z"/><path class="cls-6" d="M339.72,511.6s.72,12.59,1.71,16.31c0,0,4.65,10.14,4.73,13.6L343,545l-13.74-1-15.38-1.17a30.56,30.56,0,0,1-.41-14.55s.24-10.51-2.54-16.71C310.88,511.6,328.59,499.51,339.72,511.6Z"/><path class="cls-6" d="M355.72,482l11.72,34.67s.41,3-3.36,5.18c0,0-24.55-16.81-34.21-33.89,0,0-.95-20.33,11.89-24.61Z"/><path class="cls-7" d="M333.38,484.35s-.53-11.62,4.75-19.14c-9,6.51-8.26,22.71-8.26,22.71,9.66,17.08,34.21,33.89,34.21,33.89a6.19,6.19,0,0,0,3.2-3.8C364.47,516,342.42,500.32,333.38,484.35Z"/><path class="cls-8" d="M438.12,283.52v3.82s11.26,7.33,12.49,17.6c0,0,1.08,10.26-9.73,17.11,0,0-10.81-9.38-16.43-22.41v-7.86c0-1-1.22-9.57-1.22-9.57S433.94,279.21,438.12,283.52Z"/><path class="cls-9" d="M395.81,413.06l-36.14,70.2s-17.65-4.63-25.22-16.81l22.7-45.39-1.27-16.82,18.92-18.07Z"/><polygon class="cls-10" points="385.02 285.8 395.81 413.06 385.02 423.57 363.03 418.95 355.88 404.24 345.37 321.46 339.72 315.18 332.35 311.35 332.35 277.72 352.94 271.84 385.02 285.8"/><path class="cls-9" d="M351.08,313.8H339.72l-.55.49.55,1.6,5.65,5.57,1.33,8.33,1.47-5.91,4.14-4.27,4.56-10.35Z"/><path class="cls-10" d="M282,282.86l.32,8.15,15.08,113.81,2.93,2.93-2.93,4.6,2.93,5,2.09,2.09-2.09,4,8.79,93.18c10.05-7.54,32.53-4.09,32.53-4.09l-4.47-86.36-2.52-5,5-8V277.51C299.94,266.63,282,282.86,282,282.86Z"/><path class="cls-9" d="M281.9,282.73l.33,8.15,4.59,34.65c2.62.08,5.08.07,5.08.07l-.38-.78V298.13l8.69-9.87,31.35-.45s6.53-1.7,6.28-2.89c-.13-.61-1.89-4.88-3.75-8.86C298.19,268.07,281.9,282.73,281.9,282.73Z"/><path class="cls-9" d="M311.72,515.05a23.72,23.72,0,0,1,2.45-1.11l-7-71.33,1.24-24.49-5.58-4.65,1.59-5-1.9-4.34,1.9-2.49-4.69-6.49-4.65-51.79-.31-7.75L292,325.73l-7-14.93,12.46,94,2.93,2.93-2.93,4.6,2.93,5,2.09,2.09-2.09,4,8.79,93.18a17.08,17.08,0,0,1,2.32-1.45Z"/><path class="cls-9" d="M331.68,287.93c23.87,7.4,46.13,12.13,54.33,9.67l-1-11.8-32.08-14-16.82,4.81c-15.31-3.68-27.12-3.26-35.79-1.52C316.39,280.92,331.68,287.93,331.68,287.93Z"/><path class="cls-11" d="M310.63,87.39s30.4-1.08,40.82-.11l5.07,5.18-3,9.84S337.12,130.09,337,130.53s-14.18-12-14.18-12Z"/><path class="cls-11" d="M439.77,265.26V254.83s-21.84-123.84-43-141.77L349.17,92.85l-.33-21.4H313.41s1.07,15.54,0,20.42c0,0-32.69,22.17-50.29,32.92,0,0-17.59,129.06-17.27,159.7a14.16,14.16,0,0,0,4.89,3.26l-2,19.55,20.2,2,2.93-15.32s6.52-1,10.43-2.93l-.32-8.15s22.16-9.45,57.36,4.56c0,0,31.61,9.13,52.47,1L385,179.22l26.72,88a17.39,17.39,0,0,0,7.82,2.93l1.91,15.65,19.41-2.66Z"/><path class="cls-8" d="M348.84,71.45H313.41s1.07,15.54,0,20.42l22.39,36.71,13.37-35.73Z"/><path class="cls-5" d="M313.88,85.2,327.46,91a26.08,26.08,0,0,0,14.25,0s3.46-5.06,7.28-10l-.15-9.59H313.41S313.93,79,313.88,85.2Z"/><path class="cls-8" d="M306.54,35s1.34,31.71,9.38,40.2l12.95,11.16s9.83,2.24,17.43,0c0,0,4.46-5.35,8-15.18,0,0,4.91-26.36,2.23-44.23,0,0-1.79-28.59-36.63-20.1C319.94,6.88,303.89,12.51,306.54,35Z"/><path class="cls-12" d="M344.77,104.59a45,45,0,0,1-23.63,0l14.66,24Z"/><path class="cls-13" d="M310.63,87.39s-7.31,1.85-9.34,12.62l36.08,44.51,23.46-46.71s-3.69-11.72-9.77-10.56L335.8,128.58Z"/><path class="cls-2" d="M423.58,265.82l-7.11-3.77L410,239.61c-.46-6.89,7.77-9.11,7.77-9.11a12.51,12.51,0,0,0-9.77,0c1.11-3.77,9.33-7.77,9.33-7.77-6.89-2.22-13.07,1.33-13.07,1.33,0-12.66,19.28-13.11,19.28-13.11-10.88-5.55-22.43,1.11-22.43,1.11L385,179.22l26.72,88a17.39,17.39,0,0,0,7.82,2.93l1.91,15.65,19.41-2.66-1.11-17.88V261.6C432.41,260.94,423.58,265.82,423.58,265.82Z"/><path class="cls-2" d="M324.79,259.9c-13.19,1.47-31.5-5.86-31.5-5.86-7.7-3.66-4.77-13.55-4.77-13.55l3.66-.37,1.47-14.65c8.2,8.48,24.3,20.69,30.47,25.26-15.91-25.6-32.3-77.28-32.3-77.28-.73,7-5.49,16.9-5.49,16.9V222.9L284,250.72l-5.85,17.42-1.46,17.66-8.11,3.7a38.18,38.18,0,0,0-17.79-1.75l-2,19.55,20.2,2,2.93-15.32s6.52-1,10.43-2.93l-.32-8.15a49.81,49.81,0,0,1,13.41-2.8,64.56,64.56,0,0,1-5.82-15.4c16.85,11,36.27,5.13,36.27,5.13C338,267.23,360.14,268,360.14,268,346,257.34,324.79,259.9,324.79,259.9Z"/><path class="cls-2" d="M368.4,267.33s11.75,3.11,14.86,9.68c0,0-15.64,10.25-34.09,8.79,0,0-33.62-11.56-44.71-6l0,0a101.5,101.5,0,0,1,34.91,7.62s31.61,9.13,52.47,1L385,179.22l-2.79,88.11S374.28,265.6,368.4,267.33Z"/><polygon class="cls-7" points="442.01 301.62 442.01 332.82 406.85 319.52 406.83 294.64 442.01 301.62"/><path class="cls-8" d="M424.42,298.13s-.69,36.23,9.13,1.47c0,0-5.06-5.7-4.55-4.89S424.42,298.13,424.42,298.13Z"/><path class="cls-7" d="M346.16,541.51s1,5.42-1.91,8.93c0,0-9.1,4.15-30.08,1.6a19.51,19.51,0,0,1,0-10.53S331.49,522,346.16,541.51Z"/><path class="cls-2" d="M314.17,552c21,2.55,30.08-1.6,30.08-1.6C334,527.47,314.17,552,314.17,552Z"/><rect class="cls-2" x="236.47" y="327.52" width="46.53" height="7.82"/><rect class="cls-4" x="242.57" y="331.48" width="3.91" height="159.11"/><rect class="cls-4" x="272.98" y="331.48" width="3.91" height="159.11"/><path class="cls-8" d="M276,329.78s-.73,10.32-3.29,12.8c0,0-11.69,6.12-21.6,0-3-1.87,3.31-12.79,3.31-12.79S274.56,323.94,276,329.78Z"/><path class="cls-5" d="M257.68,329c-2,.46-3.23.84-3.23.84a50.59,50.59,0,0,0-2.88,5.92c.94,1.22,1.61,2.22,1.61,2.22a31.87,31.87,0,0,0,4.11,7,19.69,19.69,0,0,0,2.91.34,2.68,2.68,0,0,0,.14-.43c0-.19.07-.38.09-.57C261.19,339.26,259.37,333.21,257.68,329Z"/><path class="cls-8" d="M267,309.07l-15.69-1.52c-2,2.85-5.5,14.5-5.5,14.5l2.94,7.74c2.42,1.31,6,6.62,6,6.62,6,12.8,7.15,6.91,7.15,6.91,0-.19.07-.38.1-.57,1.32-8.76-5.23-20.7-5.23-20.7C260.68,322.29,267,309.07,267,309.07Z"/><path class="cls-2" d="M297.76,510.15l4.86-42.29c-43.57,10.93-84.84,0-84.84,0h0l4.12,42.27a13.24,13.24,0,0,0,12.87,11.68h49.92A13.52,13.52,0,0,0,297.76,510.15Z"/><path class="cls-7" d="M286.33,190.35h0s-5.73-24.56-5.5-28.74c0,0,0-40-2-46.78,0,0,5.35-12.68,14.55-9.55a319.47,319.47,0,0,1-1.59,55.41S294.14,179.46,286.33,190.35Z"/><path class="cls-7" d="M393.28,111.59c-7-9.62-16.57-7-16.57-7-.47,6.48,3.09,31.65,3.09,31.65,3.26,10.43,5.22,43,5.22,43l-.53,16.64a5.69,5.69,0,0,0,5.35-.75C395.94,170.59,393.28,111.59,393.28,111.59Z"/><path class="cls-14" d="M389.84,195.11c2.09-8.41,3.15-20.87,3.65-33.61a21.48,21.48,0,0,1-10.08-2.18c1,10.39,1.61,19.9,1.61,19.9l-.53,16.64A5.69,5.69,0,0,0,389.84,195.11Z"/><path class="cls-14" d="M286.33,190.35l1.12.72Z"/><path class="cls-14" d="M287.45,191.07Z"/><path class="cls-14" d="M280.77,153.23c.06,5,.06,8.38.06,8.38-.23,4.18,5.5,28.74,5.5,28.74,7.81-10.89,5.47-29.66,5.47-29.66.3-2.42.55-4.81.77-7.18A20.21,20.21,0,0,1,280.77,153.23Z"/><path class="cls-11" d="M322.79,18.64s18,15.32,34.57,13.29c0,0,11.37-37.56-34.57-31.2,0,0-7.2,2-9.38,5.77,0,0-19.81,4.63-10.85,37.86l5.43,6h5.42V38.87S323.29,30.92,322.79,18.64Z"/><path class="cls-8" d="M310.63,46.18s-3.55-7.47-9-4.17c0,0-4.49,1.18,1.18,12.74,0,0,5.19,9.44,9,1.89C311.8,56.64,312.74,49.17,310.63,46.18Z"/><path class="cls-1" d="M20.53,580.39c0,10.78,84.77,19.52,189.33,19.52s189.33-8.74,189.33-19.52-84.77-19.51-189.33-19.51S20.53,569.61,20.53,580.39Z"/><path class="cls-11" d="M139.74,534.47s2.11,12.14,2.42,16.51c0,0-19.62,14.88-25.75,17.75,0,0-7.67,4.6-7,12.78,0,0,43.22.93,56.71-2.8,0,0-5.64-32.48-7.36-44.24C158.71,534.47,145,531.36,139.74,534.47Z"/><path class="cls-11" d="M61,577.54s-2.59,5.66,13.31,10.92l.65.21c16.62,5.32,17.69,4.65,25.8,1.66l-6.69-9.14-14-10.8S63.18,571.22,61,577.54Z"/><path class="cls-15" d="M63.34,572A12.29,12.29,0,0,0,61,577.54s6.58-3.66,15.92,3c0,0,13.57,11.3,23.84,9.8a5.64,5.64,0,0,0-.74-5.11l-9.94-9.34-7-5.49-11.63-1.66Z"/><path class="cls-11" d="M74.72,567.24c5.51-3.67,10.64-23.49,10.64-23.49h15.42c-3.3,16.52-.74,41.47-.74,41.47-5.13,2.57-18.35-6.51-18.35-6.51-9.17-10.55-18.35-6.7-18.35-6.7C65.91,567.61,74.72,567.24,74.72,567.24Z"/><path class="cls-2" d="M339.85,544.86c-5.43,0-9.83,6.94-9.83,15.51s4.4,15.51,9.83,15.51h6.88V548.53Z"/><path class="cls-11" d="M336.9,560.37c0,8.56,4.4,15.51,9.83,15.51s9.83-7,9.83-15.51-4.4-15.51-9.83-15.51S336.9,551.8,336.9,560.37Z"/><path class="cls-2" d="M267.45,544.86c-5.43,0-9.83,6.94-9.83,15.51s4.4,15.51,9.83,15.51h6.88V548.53Z"/><path class="cls-11" d="M264.5,560.37c0,8.56,4.4,15.51,9.83,15.51s9.83-7,9.83-15.51-4.4-15.51-9.83-15.51S264.5,551.8,264.5,560.37Z"/><path class="cls-16" d="M201.25,435.54l26.19-41.64a5.07,5.07,0,0,1,.64-1l.11-.18,0,0a6.39,6.39,0,0,1,4.95-2h91.76a13.5,13.5,0,0,1,11.8,8.29L377,510.66a6.59,6.59,0,0,1,0,4.91h0l-.14.21a4.91,4.91,0,0,1-.62,1l-26,41.26L302.75,519h-23.3a13.47,13.47,0,0,1-11.79-8.29L257.1,481.44Z"/><path class="cls-17" d="M377.05,515.57h0l-.14.21a4.91,4.91,0,0,1-.62,1l-26,41.26-32-26.29c-2.57-31.52-7.57-91.55-7.57-91.55l26-41.19L377,510.66A6.59,6.59,0,0,1,377.05,515.57Z"/><path class="cls-18" d="M217.4,409.86h94.54a15,15,0,0,1,13.18,9.26L366,533.1l-2,3.15L322.36,420.11a12.06,12.06,0,0,0-10.42-7.31H215.56Z"/><path class="cls-18" d="M299,431.93a13.48,13.48,0,0,1,11.8,8.28l40.31,111.65c1.65,4.56-1,8.28-5.82,8.28H253.5a13.48,13.48,0,0,1-11.8-8.28L201.39,440.21c-1.64-4.55,1-8.28,5.82-8.28Z"/><path class="cls-19" d="M292.24,463.47a9.47,9.47,0,0,1,8.3,5.83l28.38,78.59c1.16,3.21-.69,5.83-4.1,5.83H260.23a9.51,9.51,0,0,1-8.31-5.83L223.55,469.3c-1.15-3.21.69-5.83,4.1-5.83Z"/><line class="cls-20" x1="231.44" y1="340.12" x2="270.71" y2="441.35"/><line class="cls-21" x1="232.41" y1="342.62" x2="238.11" y2="357.32"/><line class="cls-20" x1="197.43" y1="340.12" x2="236.7" y2="441.35"/><line class="cls-21" x1="198.4" y1="342.62" x2="204.1" y2="357.32"/><path class="cls-5" d="M202.32,319.11a20.89,20.89,0,0,0-.92,20.49s10.73.7,10.74.48,1.36-10.16.46-10.2S202.32,319.11,202.32,319.11Z"/><rect class="cls-2" x="187.37" y="336.45" width="57.32" height="7.34"/><rect class="cls-2" x="226.84" y="449.7" width="57.32" height="7.34"/><path class="cls-8" d="M48.7,310c-6.3-16.74-5.84-49.32-5.84-49.32.26-4.68.6-9,1-12.93,8.3-1.09,14,.65,17.35,2.37l-.34,1.12c-3.6,16.18-3.15,61.12-3.15,61.12Z"/><path class="cls-14" d="M78.8,203.11c-4.47,4.47-15.55,40.16-17.63,47-3.35-1.72-9.05-3.46-17.35-2.37,2.08-22.69,5.33-33.8,5.33-33.8,0-8.09,5.84-10.79,5.84-10.79,0-49,13-82.24,13-82.24,4.66-1.24,10.59-2.69,16.37-4.06h0c-.68,11-5.59,35.37-5.59,35.37C70,174.5,78.8,190,78.8,190Z"/><path class="cls-16" d="M84.39,116.81S79,111.88,71,118c0,0-8.51,90.14-17.79,180.9l14.42-.29s6.39-102,11.17-146.4C80.59,135.57,82.29,124,84.39,116.81Z"/><path class="cls-7" d="M184.42,138s8.85,3.9,9.58,23.36c0,0,8.45,13.21,5.14,32.3,0,0,.74,17.25,3.31,23.85,0,0,4,23.49,4,35.6,0,0,4.77,6.61,3.67,14.68,0,0-16.11,2.95-23.49,1.84l-4.55-8.45-27.38-44.77s3.55-38.17,4-37.07S163.82,137.34,184.42,138Z"/><path class="cls-7" d="M76.94,244c-.06-7.19,1.86-40.9,1.86-40.9V190s-8.84-15.46,0-37.78c0,0,4.91-24.4,5.59-35.37l6.32-1.5c-2.85.68,15.67,13.8,12.91,14.48,13.36-3.31,2.15-17.91,2.15-17.91h32.36C171.39,124.47,184.42,138,184.42,138c-11.24,2.24-14.84,28.76-14.84,28.76-.9,13,0,45.38,0,45.38,6.3,12.59,3.15,21.57,3.15,21.57,19.78,36,2.19,36.85,2.19,36.85v6.78c-72.42,23.84-97.63,0-97.63,0l-.35-10.81C65.64,266.48,76.94,244,76.94,244Z"/><path class="cls-14" d="M144.45,285.22l-1.13-15.48c10-5.34,30.49-7,30.49-7,1.6-7.53-4.88-29.64-4.88-29.64,1-10-4-21.18-4-21.18-4.24-51.6,8.92-61.58,8.92-61.58h0a81.63,81.63,0,0,0-4.23,16.35c-.9,13,0,45.38,0,45.38,6.3,12.59,3.15,21.57,3.15,21.57,19.78,36,2.19,36.85,2.19,36.85v6.78A232,232,0,0,1,144.45,285.22Z"/><polygon class="cls-5" points="84.39 63.78 79.34 78.59 84.66 80.09 84.39 63.78"/><path class="cls-22" d="M148.13,60s26.05,7,29.36,45.14h-5.88l-2.56-5.5.36,21.28H153V105.52l-4.89,4.77s5.5-33-3.68-41.11Z"/><path class="cls-14" d="M135.71,270.51c14.17-2.27,39.21,0,39.21,0v6.78c-72.42,23.84-97.63,0-97.63,0l-.35-10.81C89,273.06,135.71,270.51,135.71,270.51Z"/><path class="cls-8" d="M88.73,115.78c11.17-2.66,17-3.9,17-3.9h32.36c6.56,2.49,12.3,5,17.34,7.44-7.35,12-21.36,30.68-41.35,40.17A116.25,116.25,0,0,1,88.73,115.78Z"/><path class="cls-8" d="M107.91,99.76a58.35,58.35,0,0,1-2.14,12.12l8.35,12.41,24.6-9.44s-4.47-11.67,0-20.17c0,0,15.89-4.72,14.17-37.34,0,0-.81-25.75-33.24-27.9,0,0-37.23.43-35.26,34.34,0,0,.48,31.65.27,36.46C84.66,100.24,89.88,106.51,107.91,99.76Z"/><path class="cls-5" d="M107.91,99.76S119.17,97,118.38,85.65c0,0,7.92,17.08-12.61,26.23Z"/><path class="cls-11" d="M119.65,29.44c32.43,2.15,33.24,27.9,33.24,27.9,1.72,32.62-14.17,37.34-14.17,37.34-3.83-4-2.11-7.19-2.11-7.19,4.62-5.62,3-13.55,3-13.55-5.28-9.26-12.21,0-12.21,0l-.85,11.39-3.92-.24-1-13.77C106.9,56.74,91.4,56.83,84.66,56.26,88.19,29.82,119.65,29.44,119.65,29.44Z"/><path class="cls-16" d="M28.85,301.29s38.78-6.54,72.56.67c0,0,16.06,22.17-2.22,59.28,0,0-12.19,20.49-79.2,12.74Z"/><path class="cls-17" d="M48.41,340.09s35.83,7.57,55-2.94l3.95-1.4a83.22,83.22,0,0,1-8.13,25.49S87,381.73,20,374l8.86-72.69A73.15,73.15,0,0,1,48.41,340.09Z"/><path class="cls-16" d="M28.85,301.29s31,76-8.86,72.69C20,374-30.41,368.72,28.85,301.29Z"/><path class="cls-5" d="M76.94,333.27l27.58,75.49,17.17,76.7,18.05,49s14.09,1.08,19,0L152.21,490s-2.17-26.55-11.38-42.81c0,0-10.29-100.79-14.36-123C126.47,324.23,107.87,306,76.94,333.27Z"/><path class="cls-23" d="M127.63,331.47q.38,2.56.78,5.58l-6.77,14.39c-19,.71-34.7-8.12-43.26-14.23l-1.44-3.94a79.14,79.14,0,0,1,9.67-7.35l20.08-7.52h0Z"/><path class="cls-23" d="M97.71,390.12l5.43-19.81s13.76-7.64,28.37-8.51c2,16.89,4.1,36.1,5.81,52-7.12,12.73-14,24.87-17.3,29.88l-4,16.41-11.5-51.36Z"/><path class="cls-8" d="M167.58,342.62s-30.83,56.52-38.91,69L124.19,430s6.68,40.37-6.53,65.33c0,0-14.68,42.58-16.88,48.45,0,0-7.34,6.61-15.42,0,0,0,5.88-66.8,7.34-86.62,0,0-2.2-49.91,4.41-65.33l14.68-53.59S151.43,316.19,167.58,342.62Z"/><path class="cls-11" d="M174.92,277.29s-70.47,5.87-97.63,0v18.35s-5.87,22.75-5.87,36c0,0,24.22,8.07,40.37,6.6,0,0,44-6.6,55.79,4.41C167.58,342.62,182.26,302.25,174.92,277.29Z"/><path class="cls-22" d="M104.89,338.32A36.25,36.25,0,0,0,102.63,319C94.07,315,83,305,83,305c8.83,6.35,22.24,7.06,22.24,7.06-7.41-4.59-17.64-17.3-17.64-17.3,4.94,6.36,20.47,9.18,20.47,9.18a47.16,47.16,0,0,1,35.3-10.59c-9.53-.71-21.82,8.39-21.82,8.39-3.18,7.76-9.71,36.48-9.71,36.48A50.7,50.7,0,0,1,104.89,338.32Z"/><path class="cls-17" d="M13.45,320.85C.35,340.76,8.91,349,8.91,349c16.76,12,25.86-5.52,29.5-15.64,4,20.3,3.48,42.41-18.42,40.58C20,374-20.13,369.74,13.45,320.85Z"/><path class="cls-24" d="M14.73,319c.27-.38.56-.77.84-1.15C15.29,318.2,15,318.6,14.73,319Z"/><path class="cls-14" d="M107.79,185.68s-11.88,7.75-24.84,4.2C83,189.88,95.51,203.77,107.79,185.68Z"/><path class="cls-14" d="M154.73,185.82s-14.71,15.26-31.25-2.38C123.48,183.44,137.09,212.79,154.73,185.82Z"/><path class="cls-8" d="M189.77,269.83l12.08,48.44s-.32,14.69,7,16.67l1.48,9.93s3.73,2.66,6.42.09l1-7.62,9.08-.89s-2.43-4.66-13.56-15.6l-6.09-52.61S197.39,261.87,189.77,269.83Z"/><path class="cls-15" d="M109.36,581.51a12.16,12.16,0,0,1,1.38-6.63c4.76.67,21,2.68,36.32,1l18-3.21c.63,3.67,1,6,1,6C152.58,582.44,109.36,581.51,109.36,581.51Z"/></g></g></svg>